<svg width="25" height="25" viewBox="0 0 25 25" fill="none" xmlns="http://www.w3.org/2000/svg">
<path d="M21.8438 1.04166H18.7813C17.8751 1.04166 17.2084 1.41666 16.9063 2.08332C16.7397 2.38541 16.6667 2.73957 16.6667 3.15624V6.21874C16.6667 7.54166 17.4584 8.33332 18.7813 8.33332H21.8438C22.2605 8.33332 22.6147 8.26041 22.9167 8.09374C23.5834 7.79166 23.9584 7.12499 23.9584 6.21874V3.15624C23.9584 1.83332 23.1667 1.04166 21.8438 1.04166ZM22.823 5.13541C22.7188 5.23957 22.5626 5.31249 22.3959 5.32291H20.9272V5.85416L20.9376 6.77082C20.9272 6.94791 20.8647 7.09374 20.7397 7.21874C20.6355 7.32291 20.4792 7.39582 20.3126 7.39582C19.9688 7.39582 19.6876 7.11457 19.6876 6.77082V5.31249L18.2292 5.32291C17.8855 5.32291 17.6042 5.03124 17.6042 4.68749C17.6042 4.34374 17.8855 4.06249 18.2292 4.06249L19.1459 4.07291H19.6876V2.61457C19.6876 2.27082 19.9688 1.97916 20.3126 1.97916C20.6563 1.97916 20.9376 2.27082 20.9376 2.61457L20.9272 3.35416V4.06249H22.3959C22.7397 4.06249 23.0209 4.34374 23.0209 4.68749C23.0105 4.86457 22.9376 5.01041 22.823 5.13541Z" fill="#D5D6D7"/>
<path d="M9.37492 10.8125C10.7441 10.8125 11.8541 9.70253 11.8541 8.33332C11.8541 6.96412 10.7441 5.85416 9.37492 5.85416C8.00571 5.85416 6.89575 6.96412 6.89575 8.33332C6.89575 9.70253 8.00571 10.8125 9.37492 10.8125Z" fill="#D5D6D7"/>
<path d="M21.8437 8.33334H21.3541V13.1354L21.2187 13.0208C20.4062 12.3229 19.0937 12.3229 18.2812 13.0208L13.9478 16.7396C13.1353 17.4375 11.8228 17.4375 11.0103 16.7396L10.6562 16.4479C9.91659 15.8021 8.7395 15.7396 7.90617 16.3021L4.01034 18.9167C3.78117 18.3333 3.64575 17.6563 3.64575 16.8646V8.13543C3.64575 5.19793 5.19784 3.64584 8.13534 3.64584H16.6666V3.15626C16.6666 2.73959 16.7395 2.38543 16.9062 2.08334H8.13534C4.34367 2.08334 2.08325 4.34376 2.08325 8.13543V16.8646C2.08325 18 2.28117 18.9896 2.66659 19.8229C3.56242 21.8021 5.47909 22.9167 8.13534 22.9167H16.8645C20.6562 22.9167 22.9166 20.6563 22.9166 16.8646V8.09376C22.6145 8.26043 22.2603 8.33334 21.8437 8.33334Z" fill="#D5D6D7"/>
</svg>
