<svg width="133" height="100" viewBox="0 0 133 100" fill="none" xmlns="http://www.w3.org/2000/svg">
<rect x="45" width="43" height="43" rx="10.4595" fill="#27A1FE"/>
<g clip-path="url(#clip0_1_2076)">
<path d="M64.3685 15.3351C63.6146 12.0743 58.7047 12.0649 57.9508 15.3351C57.5078 17.2481 58.7235 18.8691 59.779 19.8774C60.5518 20.6031 61.7675 20.6031 62.5403 19.8774C63.5958 18.8691 64.8021 17.2481 64.3685 15.3351ZM61.1926 16.8429C60.6743 16.8429 60.2502 16.4188 60.2502 15.9005C60.2502 15.3822 60.6649 14.9581 61.1832 14.9581H61.1926C61.7204 14.9581 62.135 15.3822 62.135 15.9005C62.135 16.4188 61.7204 16.8429 61.1926 16.8429Z" fill="white"/>
<path d="M76.648 26.6439C75.8941 23.3832 70.9653 23.3738 70.202 26.6439C69.759 28.557 70.9747 30.1779 72.0397 31.1863C72.8124 31.9119 74.0376 31.9119 74.8103 31.1863C75.8752 30.1779 77.0909 28.557 76.648 26.6439ZM73.4627 28.1517C72.9444 28.1517 72.5203 27.7277 72.5203 27.2093C72.5203 26.691 72.9349 26.2669 73.4533 26.2669H73.4627C73.981 26.2669 74.4051 26.691 74.4051 27.2093C74.4051 27.7277 73.981 28.1517 73.4627 28.1517Z" fill="white"/>
<path d="M67.3088 29.6125H64.7832C63.69 29.6125 62.7382 28.9528 62.3612 27.935C61.9748 26.9172 62.2576 25.7957 63.0774 25.0701L70.6072 18.4827C71.0596 18.0869 71.069 17.5497 70.9371 17.1822C70.7957 16.8146 70.4376 16.4188 69.8345 16.4188H67.3088C66.9224 16.4188 66.602 16.0984 66.602 15.712C66.602 15.3256 66.9224 15.0052 67.3088 15.0052H69.8345C70.9277 15.0052 71.8795 15.6649 72.2564 16.6827C72.6428 17.7005 72.3601 18.822 71.5402 19.5476L64.0104 26.135C63.5581 26.5308 63.5486 27.068 63.6806 27.4355C63.8219 27.8031 64.1801 28.1989 64.7832 28.1989H67.3088C67.6952 28.1989 68.0156 28.5193 68.0156 28.9057C68.0156 29.2921 67.6952 29.6125 67.3088 29.6125Z" fill="white"/>
</g>
<path d="M2.21 89V67.58H11.05C14.79 67.58 17.51 70.3 17.51 73.53C17.51 74.992 16.864 76.012 16.218 76.658C15.844 77.032 15.402 77.372 14.96 77.61C15.606 77.916 16.15 78.29 16.66 78.766C17.51 79.582 18.36 80.942 18.36 82.88C18.36 86.11 15.47 89 11.39 89H2.21ZM6.29 76.25H10.71C12.24 76.25 13.43 75.06 13.43 73.7C13.43 72.34 12.24 71.15 10.71 71.15H6.29V76.25ZM6.29 85.43H11.05C12.954 85.43 14.28 84.104 14.28 82.37C14.28 80.636 12.954 79.31 11.05 79.31H6.29V85.43ZM30.7806 84.24H34.8606C34.0446 86.586 31.4266 89.17 27.8906 89.17C23.6746 89.17 20.0706 85.6 20.0706 81.18C20.0706 76.76 23.6746 73.19 27.8906 73.19C31.9706 73.19 35.3706 76.42 35.3706 81.18C35.3706 81.554 35.3026 81.894 35.2686 82.2L35.2006 82.71H24.3206C24.6946 84.24 25.8506 85.43 27.8906 85.43C28.9446 85.43 29.5906 85.158 30.1006 84.852C30.3726 84.682 30.6106 84.478 30.7806 84.24ZM24.1506 79.99H31.6306C31.2566 78.256 29.9306 76.93 27.8906 76.93C25.8506 76.93 24.5246 78.256 24.1506 79.99ZM39.1027 83.56V76.93H36.7227V73.7H37.7427C39.0007 73.7 39.6127 73.088 39.6127 71.83V69.62H43.0127V73.36H46.4127V76.93H43.0127V83.39C43.0127 84.75 43.8627 85.6 45.2227 85.6C45.5967 85.6 45.8007 85.566 45.9707 85.532L46.2427 85.43V88.83C46.0727 88.898 45.9027 88.966 45.6987 89C45.3247 89.102 44.8827 89.17 44.3727 89.17C41.2787 89.17 39.1027 86.96 39.1027 83.56ZM58.6513 89L57.9713 87.47C57.5973 87.776 57.2233 88.082 56.7813 88.32C55.9993 88.762 54.9113 89.17 53.5513 89.17C50.1513 89.17 48.2813 87.334 48.2813 84.75C48.2813 81.656 50.4913 79.48 57.6313 79.48C57.6313 77.746 56.6113 76.76 55.0813 76.76C54.0273 76.76 53.4833 77.202 53.1093 77.61C52.9053 77.848 52.7693 78.154 52.7013 78.46H48.7913C49.1653 75.604 51.5113 73.19 55.4213 73.19C58.9573 73.19 61.5413 75.774 61.5413 79.31V89H58.6513ZM57.6313 82.88V82.2C53.0413 82.2 52.1913 83.05 52.1913 84.41C52.1913 85.26 53.0413 86.11 54.2313 86.11C56.2713 86.11 57.6313 84.784 57.6313 82.88ZM69.178 85.09H71.898C75.298 85.09 78.358 81.996 78.358 78.29C78.358 74.584 75.298 71.49 71.898 71.49H69.178V85.09ZM65.098 89V67.58H71.898C77.508 67.58 82.438 72.51 82.438 78.29C82.438 84.07 77.508 89 71.898 89H65.098ZM85.004 89V73.36H87.894L88.574 75.06C88.846 74.72 89.186 74.414 89.56 74.142C90.206 73.632 91.124 73.19 92.314 73.19C92.688 73.19 92.926 73.258 93.164 73.292L93.504 73.36V77.44L93.13 77.372C92.892 77.338 92.552 77.27 92.144 77.27C90.24 77.27 88.914 78.63 88.914 80.67V89H85.004ZM95.7206 89V73.36H99.6306V89H95.7206ZM97.7606 71.49C96.5706 71.49 95.5506 70.47 95.5506 69.28C95.5506 68.09 96.5706 67.07 97.7606 67.07C98.9506 67.07 99.9706 68.09 99.9706 69.28C99.9706 70.47 98.9506 71.49 97.7606 71.49ZM107.267 89L101.317 73.36H105.397L109.137 84.24L112.877 73.36H116.957L111.007 89H107.267ZM128.338 89L127.658 87.47C127.284 87.776 126.91 88.082 126.468 88.32C125.686 88.762 124.598 89.17 123.238 89.17C119.838 89.17 117.968 87.334 117.968 84.75C117.968 81.656 120.178 79.48 127.318 79.48C127.318 77.746 126.298 76.76 124.768 76.76C123.714 76.76 123.17 77.202 122.796 77.61C122.592 77.848 122.456 78.154 122.388 78.46H118.478C118.852 75.604 121.198 73.19 125.108 73.19C128.644 73.19 131.228 75.774 131.228 79.31V89H128.338ZM127.318 82.88V82.2C122.728 82.2 121.878 83.05 121.878 84.41C121.878 85.26 122.728 86.11 123.918 86.11C125.958 86.11 127.318 84.784 127.318 82.88Z" fill="white"/>
<defs>
<clipPath id="clip0_1_2076">
<rect width="22.6177" height="22.6177" fill="white" transform="translate(56 11)"/>
</clipPath>
</defs>
</svg>
